<svg width="36" height="36" viewBox="0 0 36 36" fill="none" xmlns="http://www.w3.org/2000/svg">
<path d="M1.28564 15.428C1.28564 19.1789 2.77569 22.7762 5.42799 25.4285C8.08029 28.0808 11.6776 29.5709 15.4285 29.5709C19.1794 29.5709 22.7767 28.0808 25.429 25.4285C28.0813 22.7762 29.5714 19.1789 29.5714 15.428C29.5714 11.6771 28.0813 8.0798 25.429 5.4275C22.7767 2.7752 19.1794 1.28516 15.4285 1.28516C11.6776 1.28516 8.08029 2.7752 5.42799 5.4275C2.77569 8.0798 1.28564 11.6771 1.28564 15.428Z" stroke="#FF5003" stroke-width="2" stroke-linecap="round" stroke-linejoin="round"/>
<path d="M25.7012 25.7031L33.4283 33.4303" stroke="#FF5003" stroke-width="2" stroke-linecap="round" stroke-linejoin="round"/>
<path d="M6.4696 15.8301H10.4039L13.0576 10.7695L17.0767 20.091L20.5302 15.8301H24.3873" stroke="#FF5003" stroke-width="2" stroke-linecap="round" stroke-linejoin="round"/>
</svg>
