<svg width="48" height="34" viewBox="0 0 48 34" fill="none" xmlns="http://www.w3.org/2000/svg">
<path d="M10.669 30.8788C14.935 30.8788 18.3932 27.2801 18.3932 22.8408C18.3932 18.4015 14.935 14.8027 10.669 14.8027C6.40307 14.8027 2.94482 18.4015 2.94482 22.8408C2.94482 27.2801 6.40307 30.8788 10.669 30.8788Z" fill="#FF5003"/>
<path d="M10.6691 32.3398C5.63576 32.3398 1.54053 28.0782 1.54053 22.8403C1.54053 17.6024 5.63576 13.3408 10.6691 13.3408C15.7025 13.3408 19.7977 17.6024 19.7977 22.8403C19.7977 28.0782 15.7025 32.3398 10.6691 32.3398ZM10.6691 16.2637C7.18481 16.2637 4.34933 19.2144 4.34933 22.8403C4.34933 26.4662 7.18481 29.4169 10.6691 29.4169C14.1535 29.4169 16.9889 26.4662 16.9889 22.8403C16.9889 19.2144 14.1535 16.2637 10.6691 16.2637Z" fill="#FF5003"/>
<path d="M34.5438 30.8788C38.8097 30.8788 42.268 27.2801 42.268 22.8408C42.268 18.4015 38.8097 14.8027 34.5438 14.8027C30.2778 14.8027 26.8196 18.4015 26.8196 22.8408C26.8196 27.2801 30.2778 30.8788 34.5438 30.8788Z" fill="#FF5003"/>
<path d="M34.5439 32.3398C29.5105 32.3398 25.4153 28.0782 25.4153 22.8403C25.4153 17.6024 29.5105 13.3408 34.5439 13.3408C39.5773 13.3408 43.6725 17.6024 43.6725 22.8403C43.6725 28.0782 39.5773 32.3398 34.5439 32.3398ZM34.5439 16.2637C31.0596 16.2637 28.2241 19.2144 28.2241 22.8403C28.2241 26.4662 31.0596 29.4169 34.5439 29.4169C38.0282 29.4169 40.8637 26.4662 40.8637 22.8403C40.8637 19.2144 38.0282 16.2637 34.5439 16.2637Z" fill="#FF5003"/>
<path d="M2.94493 23.5704C2.16829 23.5704 1.54053 22.9171 1.54053 22.1089C1.54053 10.8264 10.3602 1.64844 21.2021 1.64844C21.9788 1.64844 22.6065 2.30171 22.6065 3.1099C22.6065 3.91809 21.9788 4.57136 21.2021 4.57136C11.9092 4.57136 4.34933 12.4384 4.34933 22.1089C4.34933 22.9171 3.72156 23.5704 2.94493 23.5704Z" fill="#FF5003"/>
<path d="M26.8197 23.5704C26.0431 23.5704 25.4153 22.9171 25.4153 22.1089C25.4153 10.8264 34.2349 1.64844 45.0769 1.64844C45.8535 1.64844 46.4813 2.30171 46.4813 3.1099C46.4813 3.91809 45.8535 4.57136 45.0769 4.57136C35.784 4.57136 28.2241 12.4384 28.2241 22.1089C28.2241 22.9171 27.5963 23.5704 26.8197 23.5704Z" fill="#FF5003"/>
</svg>
