<svg width="36" height="36" viewBox="0 0 36 36" fill="none" xmlns="http://www.w3.org/2000/svg">
<path d="M24.7497 10.9775C24.4852 12.1329 24.6904 13.346 25.3203 14.3501C25.9502 15.3542 26.9531 16.0669 28.1085 16.3314C29.2639 16.596 30.4771 16.3908 31.4811 15.7609C32.4852 15.131 33.1979 14.128 33.4625 12.9726C33.7271 11.8173 33.5218 10.6041 32.8919 9.60003C32.262 8.59597 31.2591 7.88325 30.1037 7.61868C28.9483 7.3541 27.7351 7.55934 26.7311 8.18923C25.727 8.81913 25.0143 9.82209 24.7497 10.9775Z" fill="#FF5003"/>
<path d="M24.7497 10.9775C24.4852 12.1329 24.6904 13.346 25.3203 14.3501C25.9502 15.3542 26.9531 16.0669 28.1085 16.3314C29.2639 16.596 30.4771 16.3908 31.4811 15.7609C32.4852 15.131 33.1979 14.128 33.4625 12.9726C33.7271 11.8173 33.5218 10.6041 32.8919 9.60003C32.262 8.59597 31.2591 7.88325 30.1037 7.61868C28.9483 7.3541 27.7351 7.55934 26.7311 8.18923C25.727 8.81913 25.0143 9.82209 24.7497 10.9775Z" stroke="#FF5003" stroke-width="1.5" stroke-linecap="round" stroke-linejoin="round"/>
<path d="M4.47242 4.25781H1.65991V13.4989C1.65991 18.07 5.36555 21.7757 9.9367 21.7757C14.5078 21.7757 18.2135 18.07 18.2135 13.4989V4.25781H15.401" stroke="#FF5003" stroke-width="2" stroke-linecap="round" stroke-linejoin="round"/>
<path d="M10.0974 21.8549V24.9606C10.0974 30.2131 14.3554 34.4709 19.6078 34.4709C24.8602 34.4709 29.1181 30.2131 29.1181 24.9606V16.9531" stroke="#FF5003" stroke-width="2" stroke-linecap="round" stroke-linejoin="round"/>
</svg>
