<svg width="61" height="60" viewBox="0 0 61 60" fill="none" xmlns="http://www.w3.org/2000/svg">
<path d="M48.9713 34.0156L58.3571 50.2756L48.1485 47.5413L45.4142 57.7456L37.2799 43.6499" stroke="#FF5003" stroke-width="2" stroke-linecap="round" stroke-linejoin="round"/>
<path d="M51.7271 23.4939C51.7271 29.1271 49.4893 34.5296 45.506 38.5129C41.5227 42.4961 36.1203 44.7339 30.4871 44.7339C24.8539 44.7339 19.4514 42.4961 15.4681 38.5129C11.4848 34.5296 9.24707 29.1271 9.24707 23.4939C9.24707 17.8607 11.4848 12.4582 15.4681 8.47496C19.4514 4.49169 24.8539 2.25391 30.4871 2.25391C36.1203 2.25391 41.5227 4.49169 45.506 8.47496C49.4893 12.4582 51.7271 17.8607 51.7271 23.4939Z" stroke="#FF5003" stroke-width="2" stroke-linecap="round" stroke-linejoin="round"/>
<path d="M31.3571 11.9603L34.2842 17.8489C34.3493 17.9975 34.4526 18.1261 34.5836 18.2217C34.7146 18.3173 34.8686 18.3765 35.0299 18.3932L41.5314 19.3789C41.7174 19.4027 41.8928 19.4791 42.037 19.5991C42.1811 19.719 42.2881 19.8777 42.3452 20.0563C42.4024 20.235 42.4074 20.4262 42.3596 20.6076C42.3119 20.789 42.2134 20.953 42.0757 21.0803L37.2714 25.636C37.1993 25.7728 37.1616 25.925 37.1616 26.0796C37.1616 26.2342 37.1993 26.3864 37.2714 26.5232L38.1928 32.986C38.2328 33.1733 38.2173 33.3682 38.1484 33.5469C38.0794 33.7255 37.9599 33.8802 37.8044 33.9921C37.6489 34.1039 37.4642 34.168 37.2729 34.1766C37.0816 34.1852 36.8919 34.1378 36.7271 34.0403L30.9414 30.9803C30.7918 30.9129 30.6297 30.878 30.4657 30.878C30.3016 30.878 30.1395 30.9129 29.9899 30.9803L24.2042 34.0403C24.0395 34.1352 23.8509 34.1804 23.6611 34.1705C23.4713 34.1607 23.2884 34.0962 23.1345 33.9848C22.9805 33.8734 22.862 33.7198 22.7933 33.5426C22.7245 33.3654 22.7085 33.1721 22.7471 32.986L23.8357 26.5232C23.8829 26.3727 23.8919 26.2128 23.862 26.058C23.832 25.9031 23.7641 25.7581 23.6642 25.636L18.8642 21.046C18.7353 20.9172 18.6447 20.755 18.6024 20.5777C18.5602 20.4004 18.5679 20.2149 18.6247 20.0417C18.6816 19.8685 18.7853 19.7145 18.9244 19.5967C19.0636 19.479 19.2326 19.4021 19.4128 19.3746L25.9142 18.4275C26.0755 18.4108 26.2296 18.3516 26.3606 18.256C26.4916 18.1604 26.5949 18.0317 26.6599 17.8832L29.5871 11.9989C29.665 11.8318 29.7882 11.6898 29.9428 11.5893C30.0973 11.4887 30.277 11.4334 30.4614 11.4299C30.6458 11.4263 30.8274 11.4745 30.9858 11.569C31.1441 11.6636 31.2728 11.8006 31.3571 11.9646V11.9603Z" fill="#FF5003"/>
<path d="M31.3571 11.9603L34.2842 17.8489C34.3493 17.9975 34.4526 18.1261 34.5836 18.2217C34.7146 18.3173 34.8686 18.3765 35.0299 18.3932L41.5314 19.3789C41.7174 19.4027 41.8928 19.4791 42.037 19.5991C42.1811 19.719 42.2881 19.8777 42.3452 20.0563C42.4024 20.235 42.4074 20.4262 42.3596 20.6076C42.3119 20.789 42.2134 20.953 42.0757 21.0803L37.2714 25.636C37.1993 25.7728 37.1616 25.925 37.1616 26.0796C37.1616 26.2342 37.1993 26.3864 37.2714 26.5232L38.1928 32.986C38.2328 33.1733 38.2173 33.3682 38.1484 33.5469C38.0794 33.7255 37.9599 33.8802 37.8044 33.9921C37.6489 34.1039 37.4642 34.168 37.2729 34.1766C37.0816 34.1852 36.8919 34.1378 36.7271 34.0403L30.9414 30.9803C30.7918 30.9129 30.6297 30.878 30.4657 30.878C30.3016 30.878 30.1395 30.9129 29.9899 30.9803L24.2042 34.0403C24.0395 34.1352 23.8509 34.1804 23.6611 34.1705C23.4713 34.1607 23.2884 34.0962 23.1345 33.9848C22.9805 33.8734 22.862 33.7198 22.7933 33.5426C22.7245 33.3654 22.7085 33.1721 22.7471 32.986L23.8357 26.5232C23.8829 26.3727 23.8919 26.2128 23.862 26.058C23.832 25.9031 23.7641 25.7581 23.6642 25.636L18.8642 21.046C18.7353 20.9172 18.6447 20.755 18.6024 20.5777C18.5602 20.4004 18.5679 20.2149 18.6247 20.0417C18.6816 19.8685 18.7853 19.7145 18.9244 19.5967C19.0636 19.479 19.2326 19.4021 19.4128 19.3746L25.9142 18.4275C26.0755 18.4108 26.2296 18.3516 26.3606 18.256C26.4916 18.1604 26.5949 18.0317 26.6599 17.8832L29.5871 11.9989C29.665 11.8318 29.7882 11.6898 29.9428 11.5893C30.0973 11.4887 30.277 11.4334 30.4614 11.4299C30.6458 11.4263 30.8274 11.4745 30.9858 11.569C31.1441 11.6636 31.2728 11.8006 31.3571 11.9646V11.9603Z" stroke="#FF5003" stroke-width="2" stroke-linecap="round" stroke-linejoin="round"/>
<path d="M12.0371 34.0039L2.64282 50.2725L12.8471 47.5382L15.5857 57.7468L23.7285 43.6382" stroke="#FF5003" stroke-width="2" stroke-linecap="round" stroke-linejoin="round"/>
</svg>
