<svg width="36" height="36" viewBox="0 0 36 36" fill="none" xmlns="http://www.w3.org/2000/svg">
<g clip-path="url(#clip0_992_9104)">
<path d="M1.28564 28.2852L7.56952 33.5216C8.49377 34.2918 9.65881 34.7137 10.8619 34.7137H27.4286C28.612 34.7137 29.5714 33.7543 29.5714 32.5707C29.5714 30.204 27.6526 28.2852 25.2856 28.2852H13.7681" stroke="#FF5003" stroke-width="2" stroke-linecap="round" stroke-linejoin="round"/>
<path d="M8.99993 25.7137L10.9285 27.6424C11.9936 28.7074 13.7205 28.7074 14.7856 27.6424C15.8508 26.5773 15.8508 24.8503 14.7856 23.7852L11.792 20.7914C10.8275 19.827 9.51938 19.2852 8.1554 19.2852H1.28564" stroke="#FF5003" stroke-width="2" stroke-linecap="round" stroke-linejoin="round"/>
<path d="M24.0209 22.1854C26.7609 22.1854 29.3886 21.097 31.326 19.1595C33.2635 17.2221 34.3519 14.5944 34.3519 11.8544C34.3519 9.11448 33.2635 6.48675 31.326 4.54931C29.3886 2.61188 26.7609 1.52344 24.0209 1.52344C21.281 1.52344 18.6533 2.61188 16.7158 4.54931C14.7784 6.48675 13.6899 9.11448 13.6899 11.8544C13.6899 14.5944 14.7784 17.2221 16.7158 19.1595C18.6533 21.097 21.281 22.1854 24.0209 22.1854Z" stroke="#FF5003" stroke-width="2" stroke-linecap="round" stroke-linejoin="round"/>
<path d="M26.7261 9.03015C26.58 8.61667 26.3092 8.2587 25.9511 8.00562C25.593 7.75254 25.1651 7.61682 24.7266 7.61719H23.0864C22.6194 7.61642 22.1686 7.78846 21.8208 8.10018C21.4731 8.4119 21.2529 8.84125 21.2028 9.30556C21.1527 9.76988 21.2761 10.2363 21.5494 10.6151C21.8226 10.9938 22.2263 11.2581 22.6827 11.357L25.1796 11.9038C25.6901 12.0158 26.1412 12.3124 26.4464 12.7366C26.7515 13.1609 26.8893 13.6829 26.8331 14.2025C26.777 14.7221 26.5309 15.2027 26.1421 15.552C25.7533 15.9012 25.2492 16.0946 24.7266 16.095H23.3152C22.8766 16.095 22.4487 15.9589 22.0906 15.7056C21.7325 15.4522 21.4618 15.0941 21.3158 14.6804" stroke="#FF5003" stroke-width="2" stroke-linecap="round" stroke-linejoin="round"/>
<path d="M24.021 7.61474V5.49609" stroke="#FF5003" stroke-width="2" stroke-linecap="round" stroke-linejoin="round"/>
<path d="M24.021 18.2124V16.0938" stroke="#FF5003" stroke-width="2" stroke-linecap="round" stroke-linejoin="round"/>
</g>
<defs>
<clipPath id="clip0_992_9104">
<rect width="36" height="36" fill="white"/>
</clipPath>
</defs>
</svg>
