<svg width="61" height="60" viewBox="0 0 61 60" fill="none" xmlns="http://www.w3.org/2000/svg">
<path d="M25.6191 32.2773C20.5042 32.2773 15.5988 34.3092 11.982 37.926C8.36526 41.5428 6.33337 46.4482 6.33337 51.5631V53.7059H44.7891C45.0906 51.009 44.8196 48.2787 43.9937 45.6937C43.1678 43.1087 41.8056 40.7271 39.9963 38.7045C38.1869 36.682 35.9711 35.0641 33.4936 33.9566C31.0161 32.849 28.3328 32.2768 25.6191 32.2773Z" stroke="#FF5003" stroke-width="2"/>
<path d="M25.6191 23.7059C28.4607 23.7059 31.1859 22.5771 33.1952 20.5678C35.2045 18.5585 36.3334 15.8332 36.3334 12.9916C36.3334 10.15 35.2045 7.4248 33.1952 5.41549C31.1859 3.40617 28.4607 2.27734 25.6191 2.27734C22.7775 2.27734 20.0522 3.40617 18.0429 5.41549C16.0336 7.4248 14.9048 10.15 14.9048 12.9916C14.9048 15.8332 16.0336 18.5585 18.0429 20.5678C20.0522 22.5771 22.7775 23.7059 25.6191 23.7059Z" stroke="#FF5003" stroke-width="2" stroke-linecap="round" stroke-linejoin="round"/>
<path d="M27.7491 53.7075H6.33337V51.3847C6.36198 48.6441 6.97309 45.9409 8.12616 43.4546C9.27923 40.9682 10.9479 38.7555 13.0214 36.9632C15.0949 35.171 17.5259 33.8402 20.153 33.0592C22.7801 32.2782 25.5432 32.0648 28.2591 32.4332" stroke="#FF5003" stroke-width="1.5" stroke-linecap="round" stroke-linejoin="round"/>
<path d="M3.33337 27C7.5117 27 9.33341 25.242 9.33341 21C9.33341 25.242 11.1423 27 15.3334 27C11.1423 27 9.33341 28.8089 9.33341 33C9.33341 28.8089 7.5117 27 3.33337 27Z" fill="#FF5003" stroke="#FF5003" stroke-linejoin="round"/>
<path d="M42.3334 36.0765C47.9577 36.0765 50.4099 33.7101 50.4099 28C50.4099 33.7101 52.8447 36.0765 58.4862 36.0765C52.8447 36.0765 50.4099 38.5113 50.4099 44.1529C50.4099 38.5113 47.9577 36.0765 42.3334 36.0765Z" fill="#FF5003" stroke="#FF5003" stroke-linejoin="round"/>
<path d="M39.3334 22.192C42.9491 22.192 44.5254 20.6707 44.5254 17C44.5254 20.6707 46.0907 22.192 49.7173 22.192C46.0907 22.192 44.5254 23.7573 44.5254 27.3839C44.5254 23.7573 42.9491 22.192 39.3334 22.192Z" fill="#FF5003" stroke="#FF5003" stroke-linejoin="round"/>
</svg>
