<svg width="61" height="60" viewBox="0 0 61 60" fill="none" xmlns="http://www.w3.org/2000/svg">
<path d="M4.85425 24.375C4.85425 13.7684 4.85425 8.46511 8.14929 5.17004C11.4444 1.875 16.7476 1.875 27.3542 1.875H32.9792C43.5857 1.875 48.8893 1.875 52.1841 5.17004C55.4792 8.46511 55.4792 13.7684 55.4792 24.375V35.625C55.4792 46.2315 55.4792 51.535 52.1841 54.8299C48.8893 58.125 43.5857 58.125 32.9792 58.125H27.3542C16.7476 58.125 11.4444 58.125 8.14929 54.8299C4.85425 51.535 4.85425 46.2315 4.85425 35.625V24.375Z" stroke="#FF5003" stroke-width="2"/>
<path d="M42.5744 24.295L44.4464 19.6148C45.7801 16.2807 43.6904 12.5676 40.1484 11.9773L38.9519 11.7778C33.1354 10.8084 27.1985 10.8084 21.3818 11.7778L20.1853 11.9773C16.6432 12.5676 14.5537 16.2807 15.8873 19.6148L17.7594 24.295C18.4225 25.9528 20.2082 26.8657 21.9404 26.4329C27.3416 25.0826 32.9922 25.0826 38.3934 26.4329C40.1256 26.8657 41.9112 25.9528 42.5744 24.295Z" stroke="#FF5003" stroke-width="2" stroke-linecap="round"/>
<path d="M25.047 24.1778L23.1487 18.8828" stroke="#FF5003" stroke-width="2" stroke-linecap="round"/>
<path d="M35.4229 50.0014H45.1664V40.2578" stroke="#FF5003" stroke-width="3" stroke-linecap="round" stroke-linejoin="round"/>
<path d="M45.1667 50.0005L31.4038 36.2377C31.1762 36.0145 30.8701 35.8895 30.5513 35.8895C30.2325 35.8895 29.9264 36.0145 29.6987 36.2377L24.0962 41.8402C23.8685 42.0634 23.5624 42.1884 23.2436 42.1884C22.9248 42.1884 22.6187 42.0634 22.391 41.8402L13.5 32.9492" stroke="#FF5003" stroke-width="3" stroke-linecap="round" stroke-linejoin="round"/>
</svg>
